:FULLY-SPECIFIED
:FORCE-ALL-JOINTS-BE-3DOF
:DEGREES
1053
root 1.20737 15.1592 32.5515 4.89934 -3.43019 3.46495
lfemur 8.73027 0.496284 5.64134
ltibia 0 0 0
lfoot -30.4281 -11.1979 -0.000266433
ltoes -34.1996 0 0
rfemur -31.1025 -15.6883 -6.30853
rtibia 50.0257 -0 0
rfoot -21.8701 5.45931 -2.12767e-06
rtoes -40.9677 0 0
lowerback -1.8128 -0.0552507 -0.243732
upperback -0.488216 -0.0368699 -6.04496
thorax 0.511611 -0.0203464 -6.12928
lowerneck -6.98563 0.76452 6.56113
upperneck 1.26181 0.336833 3.64912
head 1.58291 0.293369 0.0484638
lclavicle 0 0 0
lhumerus -58.7032 -46.8317 115.399
lradius 55.7982 -0 0
lwrist 25.5182 0 0
lhand 37.4168 25.3149 -5.05537e-06
lfingers 0 0 0
lthumb 60.2215 38.8605 -9.38706e-06
rclavicle 0 0 0
rhumerus 2.19324 -23.5349 0.589826
rradius 27.4921 -0 0
rwrist -9.74147 0 0
rhand -30.536 -42.0718 -2.39523e-05
rfingers 0 0 0
rthumb -3.83504 -72.0174 -2.35132e-05
1054
root 1.20975 15.1595 32.5562 4.90173 -3.43338 3.45704
lfemur 8.70771 0.50214 5.63175
ltibia 0 0 0
lfoot -30.4674 -11.1809 -0.000412556
ltoes -34.2035 0 0
rfemur -31.0853 -15.6747 -6.30914
rtibia 50.0119 -0 0
rfoot -21.8686 5.45554 -3.29457e-06
rtoes -40.962 0 0
lowerback -1.82046 -0.0562826 -0.249722
upperback -0.489557 -0.037968 -6.03916
thorax 0.514432 -0.0208802 -6.11973
lowerneck -6.98984 0.763781 6.55412
upperneck 1.27184 0.335465 3.65188
head 1.58688 0.293114 0.0504827
lclavicle 0 0 0
lhumerus -58.6971 -46.8282 115.404
lradius 55.7941 -0 0
lwrist 25.5191 0 0
lhand 37.4208 25.3118 -7.82795e-06
lfingers 0 0 0
lthumb 60.2249 38.8537 -1.45353e-05
rclavicle 0 0 0
rhumerus 2.19226 -23.5201 0.586558
rradius 27.4943 -0 0
rwrist -9.72488 0 0
rhand -30.5429 -42.0631 -3.70888e-05
rfingers 0 0 0
rthumb -3.8417 -72.0085 -3.64088e-05
1055
root 1.21222 15.1599 32.561 4.90438 -3.4369 3.4483
lfemur 8.68279 0.508603 5.62116
ltibia 0 0 0
lfoot -30.5109 -11.1621 -0.00056036
ltoes -34.2079 0 0
rfemur -31.0663 -15.6596 -6.30981
rtibia 49.9967 -0 0
rfoot -21.8671 5.45138 -4.47489e-06
rtoes -40.9557 0 0
lowerback -1.82892 -0.0574233 -0.256339
upperback -0.491037 -0.0391806 -6.03276
thorax 0.517547 -0.0214704 -6.10919
lowerneck -6.99448 0.762964 6.54637
upperneck 1.28292 0.333954 3.65494
head 1.59127 0.292832 0.0527125
lclavicle 0 0 0
lhumerus -58.6903 -46.8243 115.41
lradius 55.7896 -0 0
lwrist 25.5201 0 0
lhand 37.4253 25.3083 -1.06324e-05
lfingers 0 0 0
lthumb 60.2287 38.8461 -1.97428e-05
rclavicle 0 0 0
rhumerus 2.19119 -23.5038 0.582948
rradius 27.4968 -0 0
rwrist -9.70657 0 0
rhand -30.5505 -42.0534 -5.03762e-05
rfingers 0 0 0
rthumb -3.84906 -71.9987 -4.94527e-05
1056
root 1.21477 15.1602 32.5661 4.90725 -3.44072 3.4388
lfemur 8.65572 0.515616 5.60966
ltibia 0 0 0
lfoot -30.5581 -11.1417 -0.000704725
ltoes -34.2125 0 0
rfemur -31.0456 -15.6433 -6.31052
rtibia 49.9802 -0 0
rfoot -21.8654 5.44687 -5.62774e-06
rtoes -40.9488 0 0
lowerback -1.8381 -0.0586631 -0.263523
upperback -0.492645 -0.0404972 -6.02581
thorax 0.520929 -0.0221119 -6.09775
lowerneck -6.99952 0.762076 6.53795
upperneck 1.29496 0.332312 3.65825
head 1.59604 0.292526 0.0551339
lclavicle 0 0 0
lhumerus -58.6829 -46.8201 115.416
lradius 55.7847 -0 0
lwrist 25.5212 0 0
lhand 37.4301 25.3046 -1.33716e-05
lfingers 0 0 0
lthumb 60.2329 38.8379 -2.4829e-05
rclavicle 0 0 0
rhumerus 2.19002 -23.486 0.579029
rradius 27.4994 -0 0
rwrist -9.68668 0 0
rhand -30.5588 -42.043 -6.33546e-05
rfingers 0 0 0
rthumb -3.85704 -71.9881 -6.21931e-05
1057
root 1.21736 15.1606 32.5712 4.91033 -3.44481 3.42864
lfemur 8.62673 0.523123 5.59733
ltibia 0 0 0
lfoot -30.6086 -11.1199 -0.000840727
ltoes -34.2176 0 0
rfemur -31.0235 -15.6259 -6.31129
rtibia 49.9625 -0 0
rfoot -21.8635 5.44203 -6.71381e-06
rtoes -40.9414 0 0
lowerback -1.84794 -0.0599925 -0.27122
upperback -0.494368 -0.0419074 -6.01837
thorax 0.524552 -0.0227999 -6.08549
lowerneck -7.00492 0.761125 6.52894
upperneck 1.30785 0.330552 3.6618
head 1.60114 0.292198 0.0577278
lclavicle 0 0 0
lhumerus -58.6749 -46.8155 115.422
lradius 55.7794 -0 0
lwrist 25.5224 0 0
lhand 37.4353 25.3005 -1.59521e-05
lfingers 0 0 0
lthumb 60.2373 38.8291 -2.96207e-05
rclavicle 0 0 0
rhumerus 2.18876 -23.467 0.574831
rradius 27.5023 -0 0
rwrist -9.66537 0 0
rhand -30.5676 -42.0318 -7.5581e-05
rfingers 0 0 0
rthumb -3.8656 -71.9767 -7.41954e-05
1058
root 1.21997 15.161 32.5765 4.91359 -3.44915 3.41787
lfemur 8.59602 0.531067 5.58427
ltibia 0 0 0
lfoot -30.6622 -11.0967 -0.000963735
ltoes -34.2229 0 0
rfemur -31.0001 -15.6073 -6.31209
rtibia 49.9437 -0 0
rfoot -21.8616 5.4369 -7.6961e-06
rtoes -40.9336 0 0
lowerback -1.85836 -0.0614019 -0.279371
upperback -0.496193 -0.0434008 -6.01048
thorax 0.52839 -0.0235294 -6.0725
lowerneck -7.01064 0.760116 6.51939
upperneck 1.32151 0.328688 3.66556
head 1.60655 0.29185 0.060475
lclavicle 0 0 0
lhumerus -58.6666 -46.8107 115.429
lradius 55.7738 -0 0
lwrist 25.5236 0 0
lhand 37.4408 25.2962 -1.82861e-05
lfingers 0 0 0
lthumb 60.242 38.8198 -3.39545e-05
rclavicle 0 0 0
rhumerus 2.18743 -23.4469 0.570384
rradius 27.5053 -0 0
rwrist -9.6428 0 0
rhand -30.577 -42.0199 -8.66393e-05
rfingers 0 0 0
rthumb -3.87466 -71.9646 -8.50509e-05
1059
root 1.22257 15.1615 32.5818 4.91701 -3.45369 3.40657
lfemur 8.56381 0.539391 5.57056
ltibia 0 0 0
lfoot -30.7183 -11.0724 -0.0010695
ltoes -34.2285 0 0
rfemur -30.9755 -15.5879 -6.31292
rtibia 49.9241 -0 0
rfoot -21.8596 5.43152 -8.54072e-06
rtoes -40.9255 0 0
lowerback -1.86929 -0.0628818 -0.28792
upperback -0.498108 -0.0449667 -6.00221
thorax 0.532414 -0.0242954 -6.05888
lowerneck -7.01664 0.759057 6.50938
upperneck 1.33583 0.326731 3.66951
head 1.61222 0.291484 0.0633564
lclavicle 0 0 0
lhumerus -58.6578 -46.8057 115.436
lradius 55.7679 -0 0
lwrist 25.525 0 0
lhand 37.4466 25.2918 -2.02929e-05
lfingers 0 0 0
lthumb 60.2469 38.8101 -3.76808e-05
rclavicle 0 0 0
rhumerus 2.18604 -23.4258 0.565721
rradius 27.5084 -0 0
rwrist -9.61913 0 0
rhand -30.5868 -42.0074 -9.61476e-05
rfingers 0 0 0
rthumb -3.88417 -71.9519 -9.43849e-05
